<svg width="50" height="50" viewBox="0 0 50 50" xmlns="http://www.w3.org/2000/svg"><path d="M25 0C11.212 0 0 11.212 0 25s11.212 25 25 25 25-11.212 25-25S38.788 0 25 0zm8.945 16.281a.958.958 0 0 0-1.356 0l-7.98 7.981-7.972-7.971a.958.958 0 1 0-1.356 1.356l7.971 7.97-7.97 7.972a.958.958 0 0 0 0 1.356.917.917 0 0 0 .672.288c.25 0 .49-.096.683-.279l7.971-7.98 7.971 7.97a.954.954 0 0 0 .683.29c.25 0 .49-.097.683-.28a.958.958 0 0 0 0-1.355l-7.981-7.981 7.971-7.971a.96.96 0 0 0 .01-1.366zM25 48.077C12.279 48.077 1.923 37.72 1.923 25 1.923 12.279 12.28 1.923 25 1.923 37.721 1.923 48.077 12.28 48.077 25c0 12.721-10.356 23.077-23.077 23.077z" fill="#FB5360"/></svg>