<svg width="22" height="22" viewBox="0 0 22 22" xmlns="http://www.w3.org/2000/svg"><g fill="#FBB03B"><circle stroke="#FBB03B" stroke-width="2" id="a" cx="11" cy="11" r="10" fill-opacity="0.6"></circle><path d="M11.98 6.05c-.969 3.436-1.214 3.935-1.757 3.861-1.213-.165 1.6-5.555.107-5.738-1.222-.15-1.228 1.952-1.897 4.25-.201.692-.58 2.238-1.132 2.162-.828-.112-.25-1.507-.091-2.38.201-1.123-.722-1.74-1.246-.214-.267.774-.326.852-.406 1.7-.091.963-.2 1.93-.415 2.88-.462 2.048-.316 5.332 3.294 5.822 1.948.266 3.523-.87 4.493-1.967l.005.003c.482-.659.977-1.401 1.539-1.773 1.493-.986 2.793-.723 3.03-1.426.446-1.341-3.415-.607-4.19-.411-.553.14-1.884.3-2.1.892-.233.64.546.487.8.83.295.397-.126.887-.553 1.268-.499.455-1.316.898-2.602.725-2.673-.36-2.418-3.246-.704-4.142 3.046-1.59 5.738.123 6.756-2.148.964-2.144 2.337-4.688 1.302-4.851-1.132-.177-1.37 1.32-2.067 2.904-.609 1.39-.754 1.526-1.132 1.475-.8-.108 2.048-6.008.688-6.192a1.3 1.3 0 0 0-.174-.012c-1.15 0-1.324 1.686-1.548 2.482"></path></g></svg>