<svg height="900" viewBox="0 0 1440 900" width="1440" xmlns="http://www.w3.org/2000/svg" xmlns:xlink="http://www.w3.org/1999/xlink"><linearGradient id="a"><stop offset="0" stop-color="#272543"/><stop offset="1" stop-color="#111020"/></linearGradient><linearGradient id="b" x1="50%" x2="50%" xlink:href="#a" y1="98.885%" y2="0%"/><linearGradient id="c" x1="2.473%" x2="97.527%" xlink:href="#a" y1="35.814%" y2="63.07%"/><g fill="none" fill-rule="evenodd"><path d="m0 0h1440v900h-1440z" fill="url(#b)"/><path d="m1440 115.792c-221.951 245.843-514.418-77.122-976.675 18.261-263.738 53.87-408.608 430.954-64.48 582.099 165.01 72.992 291.222 44.435 375.546 2.75 72.404-35.055 146.594-84.11 122.88-148.96-20.64-56.153-130.468-65.319-75.053-142.085 51.582-71.167 235.78-41.792 315.18-39.118 48.65 1.297 179.581 11.55 302.602 36.156v219.993c-62.982 1.336-135.957 8.165-217.647 33.9-89.301 27.976-183.541 108.122-273.794 178.247l-1.03-.295c-23.249 14.92-48.007 29.49-74.058 43.26h-695.622c-81.735-50.5-139.278-110.608-177.849-176.127v-566.84a1089.987 1089.987 0 0 1 54.252-114.603 2254.488 2254.488 0 0 0 22.216-42.43h1363.532z" fill="url(#c)"/></g></svg>