<?xml version="1.0" encoding="UTF-8"?>
<svg width="67px" height="76px" viewBox="0 0 67 76" version="1.1" xmlns="http://www.w3.org/2000/svg" xmlns:xlink="http://www.w3.org/1999/xlink">
    <!-- Generator: Sketch 52.2 (67145) - http://www.bohemiancoding.com/sketch -->
    <title>Shape</title>
    <desc>Created with Sketch.</desc>
    <defs>
        <filter x="-4.2%" y="-4.4%" width="108.3%" height="108.8%" filterUnits="objectBoundingBox" id="filter-1">
            <feOffset dx="0" dy="2" in="SourceAlpha" result="shadowOffsetOuter1"></feOffset>
            <feGaussianBlur stdDeviation="4" in="shadowOffsetOuter1" result="shadowBlurOuter1"></feGaussianBlur>
            <feColorMatrix values="0 0 0 0 0   0 0 0 0 0   0 0 0 0 0  0 0 0 0.706068841 0" type="matrix" in="shadowBlurOuter1" result="shadowMatrixOuter1"></feColorMatrix>
            <feMerge>
                <feMergeNode in="shadowMatrixOuter1"></feMergeNode>
                <feMergeNode in="SourceGraphic"></feMergeNode>
            </feMerge>
        </filter>
    </defs>
    <g id="Onboarding" stroke="none" stroke-width="1" fill="none" fill-rule="evenodd">
        <g id="Onboarding---Welcome" transform="translate(-687.000000, -360.000000)" fill="#F26122" fill-rule="nonzero">
            <g id="Modal" filter="url(#filter-1)" transform="translate(480.000000, 286.000000)">
                <g id="trofej" transform="translate(161.000000, 40.000000)">
                    <g id="trophy-(3)">
                        <path d="M79.162345,97.6045857 C82.3092273,95.8118842 85.0402432,93.3763572 87.1762348,90.4577779 C87.3047998,90.2833788 88.6868744,88.3649876 88.8118682,88.1870293 C91.1510384,85.0158113 94.8829968,82.7913318 98.8613717,81.90154 C100.075597,81.6381617 102.343343,81.1114049 103.304009,80.5205832 L103.503999,80.4066898 L103.304009,80.5205832 C103.372604,80.4860912 103.439357,80.4480757 103.503999,80.4066898 C104.242739,79.9349111 104.689584,79.1207033 104.689655,78.2462753 C104.689655,76.9115876 103.218299,75.3989416 98.5506728,75.5199533 C96.530143,75.5515759 94.5128976,75.6941588 92.5081142,75.9470533 L92.0474227,76.0146775 C91.0903271,76.1570442 90.140374,76.3314434 89.190421,76.5343159 L89.0404284,76.5663484 L88.5154543,76.6873601 C87.6583538,76.8866735 86.8155383,77.110901 85.9798653,77.3636019 C84.969201,77.6625719 83.9763929,78.0006928 83.001441,78.3708462 C82.3229031,78.6318518 81.6515077,78.9059077 80.9872548,79.1930138 C80.1158693,79.5987589 79.2016288,80.2216131 78.8802161,81.1398783 C78.8120062,81.3342786 78.7781724,81.5390035 78.780221,81.7449367 C78.7665494,82.2039155 78.995699,82.6363399 79.3837626,82.8838702 C79.7158891,83.072506 80.5979884,83.3714761 80.9301148,83.5031653 C82.1822808,83.9973521 82.832911,85.3768214 82.4157557,86.6530282 C82.293247,86.9868442 82.1223989,87.3010041 81.9086379,87.58553 C80.4942382,89.5759039 78.4705801,91.0557306 76.1410657,91.8031431 C74.7554284,92.2116596 73.3216009,92.4354607 71.8769907,92.4687074 C69.5056793,92.4687074 67.3700705,92.1377049 65.4487368,90.8243722 C63.9559535,89.8064504 61.8167734,87.2260541 61.8167734,84.179407 C61.8159275,82.2190635 62.4247876,80.3066495 63.5595445,78.7054079 C64.6443563,77.0892332 66.166034,75.8120916 67.9486133,75.0216699 C71.0698877,73.3737755 74.3554396,72.8221046 77.873123,72.6761787 C80.3729995,72.6512645 88.411888,72.1529811 90.6117793,71.3272543 C93.9401863,70.042395 94.8972819,68.170273 95.7150986,65.9885036 L99.9398898,54.5920502 C100.389868,53.3000726 101.789798,48.7977261 99.0327918,47.8545468 C95.8186649,46.7547641 93.8723325,51.435069 93.5723473,52.1860532 L91.0938983,58.9022017 L90.8653382,59.5179376 L89.5511174,62.8849098 C89.1689934,63.8885949 88.3047504,65.2695518 86.8548221,64.9527859 C85.3370399,64.5577184 85.39418,62.9667706 85.8548715,61.4612429 L86.5441231,59.2189676 C86.5441231,59.2189676 89.9939527,47.8723426 90.0868052,47.5413401 C90.3992893,46.5481293 90.6321524,45.5317594 90.7831994,44.5018113 C90.9403345,42.8396802 90.7831994,40.5867274 89.0261434,40.109799 C86.6941157,39.4976222 84.9227747,41.5334658 84.0263904,44.0248829 C83.6371239,45.1246655 77.9909743,63.6003024 77.9909743,63.6003024 C77.7231304,64.4545025 76.8231749,65.9635894 75.4053878,65.7358027 C74.487576,65.6005543 73.5126241,64.59331 74.0161707,62.5325522 L75.8232243,54.9016978 L77.2517251,48.9578886 C77.5302828,47.8652243 78.1159681,43.1528869 75.4660991,42.6403668 C72.6090974,42.0922551 71.2698778,45.1317839 70.8663263,46.4985041 L69.8163782,50.5452772 L65.9487121,65.9102019 C65.4987344,67.3338688 64.813054,68.4728023 63.4845482,68.3802639 C62.3381762,68.2984031 61.7489196,66.8996504 61.938196,65.4937793 C61.981051,65.1556584 62.9274328,59.1157517 62.9274328,59.1157517 C63.1881343,57.5141265 63.1881343,54.3464677 61.116808,54.1649502 C58.9240592,53.9585185 57.4669884,56.3716338 57.1277194,58.2152824 L56.002775,65.6895335 L55.7420736,67.6506346 L54.2314339,79.1253896 C53.7100311,82.709471 54.1564376,86.6708241 54.713553,88.4041385 C55.8777812,91.9633057 57.8991099,94.9102961 60.9061041,97.0137639 C63.6781563,98.9676328 66.9925302,100.011456 70.3877785,99.9999052 C74.5375735,99.9999052 78.6480847,97.9249107 79.1516312,97.6188223" id="Shape"></path>
                    </g>
                </g>
            </g>
        </g>
    </g>
</svg>