<svg width="116" height="116" viewBox="0 0 116 116" xmlns="http://www.w3.org/2000/svg"><g fill-rule="nonzero" fill="none"><path d="M86 26h12a4.012 4.012 0 0 1 4 4v64H14V30a4.012 4.012 0 0 1 4-4h68z" fill="#3F5C6C"/><path fill="#BDC3C7" d="M14 90L0 108v4h116v-4l-14-18z"/><path d="M0 108h116v4a4 4 0 0 1-4 4H4a4 4 0 0 1-4-4v-4z" fill="#95A5A5"/><path d="M90 98H26a2 2 0 0 0 0 4h64a2 2 0 0 0 0-4zM18 98h-2a2 2 0 0 0 0 4h2a2 2 0 0 0 0-4zM100 98h-2a2 2 0 0 0 0 4h2a2 2 0 0 0 0-4z" fill="#7F8C8D"/><path d="M82.82 76H88a10 10 0 0 1-18.34 0h-.02L32 75.84a4 4 0 1 1-.02-8l37.66.16.02.02A10 10 0 0 1 88 68h-5.18a4 4 0 1 0 0 8z" fill="#F0C419"/><path d="M85.7 32.1c.4-2.719.4-5.481 0-8.2l-6.63-2.2a21.76 21.76 0 0 0-1.706-4.136l3.122-6.242a28.182 28.182 0 0 0-5.8-5.8l-6.24 3.114A21.76 21.76 0 0 0 64.31 6.93L62.1.3c-2.719-.4-5.481-.4-8.2 0l-2.21 6.63a21.76 21.76 0 0 0-4.136 1.706l-6.242-3.122a28.182 28.182 0 0 0-5.8 5.8l3.122 6.242a21.76 21.76 0 0 0-1.706 4.136l-6.63 2.2c-.4 2.719-.4 5.481 0 8.2l6.63 2.21a21.76 21.76 0 0 0 1.706 4.136l-3.122 6.242a28.314 28.314 0 0 0 5.8 5.8l6.242-3.122a21.76 21.76 0 0 0 4.136 1.706L53.9 55.7c2.719.4 5.481.4 8.2 0l2.21-6.63a21.76 21.76 0 0 0 4.136-1.706l6.242 3.122a28.314 28.314 0 0 0 5.8-5.8l-3.122-6.242a21.76 21.76 0 0 0 1.706-4.136L85.7 32.1zM58 40c-6.627 0-12-5.373-12-12s5.373-12 12-12 12 5.373 12 12a12 12 0 0 1-12 12z" fill="#95A5A5"/><circle fill="#5E5F62" cx="58" cy="28" r="16"/><circle fill="#95A5A5" cx="58" cy="28" r="8"/></g></svg>