<svg width="20" height="20" viewBox="0 0 20 20" xmlns="http://www.w3.org/2000/svg" xmlns:xlink="http://www.w3.org/1999/xlink"><defs><path d="M6 0H3a3 3 0 0 0-3 3v3a1 1 0 1 0 2 0V3a1 1 0 0 1 1-1h3a1 1 0 1 0 0-2zm14 6V3a3 3 0 0 0-3-3h-3a1 1 0 0 0 0 2h3a1 1 0 0 1 1 1v3a1 1 0 0 0 2 0zm-6 14h3a3 3 0 0 0 3-3v-3a1 1 0 0 0-2 0v3a1 1 0 0 1-1 1h-3a1 1 0 0 0 0 2zM0 14v3a3 3 0 0 0 3 3h3a1 1 0 0 0 0-2H3a1 1 0 0 1-1-1v-3a1 1 0 0 0-2 0z" id="a"/></defs><use fill="#7F8FA4" fill-rule="nonzero" xlink:href="#a"/></svg>