<svg width="18" height="18" viewBox="0 0 18 18" xmlns="http://www.w3.org/2000/svg"><path d="M8.016 15h1.968v-2.016H8.016V15zM9 3c-1.125.031-2.062.422-2.813 1.172-.75.75-1.14 1.687-1.171 2.812h1.968c.032-.562.235-1.03.61-1.406.375-.375.843-.562 1.406-.562s1.031.187 1.406.562c.375.375.578.844.61 1.406-.125.875-.625 1.555-1.5 2.04C8.64 9.507 8.14 10.5 8.016 12h1.968c.125-1.031.625-1.836 1.5-2.414.875-.578 1.375-1.445 1.5-2.602-.03-1.125-.421-2.062-1.171-2.812S10.124 3.032 9 3zM2.016 0h13.968c.563 0 1.04.195 1.43.586.39.39.586.867.586 1.43v13.968c0 .563-.195 1.04-.586 1.43-.39.39-.867.586-1.43.586H2.016c-.563 0-1.04-.195-1.43-.586A1.945 1.945 0 0 1 0 15.984V2.016C0 1.453.195.976.586.586.976.196 1.453 0 2.016 0z" fill="#0EA5F0" fill-rule="evenodd"/></svg>