<svg xmlns="http://www.w3.org/2000/svg" width="768" height="768" viewBox="0 0 768 768"><path fill="#fff" opacity=".7" d="M384 192c70.5 0 127.5 57 127.5 127.5 0 79.5-96 88.5-96 160.5h-63c0-103.5 96-96 96-160.5 0-34.5-30-63-64.5-63s-64.5 28.5-64.5 63h-63c0-70.5 57-127.5 127.5-127.5zm0 448.5c141 0 256.5-115.5 256.5-256.5S525 127.5 384 127.5 127.5 243 127.5 384 243 640.5 384 640.5zm0-576C561 64.5 703.5 207 703.5 384S561 703.5 384 703.5 64.5 561 64.5 384 207 64.5 384 64.5zM352.5 576v-64.5h63V576h-63z"/></svg>