<svg xmlns="http://www.w3.org/2000/svg" width="24" height="25" viewBox="0 0 24 25"><g id="Styleguide" fill="none" fill-rule="evenodd"><path id="clipboard-outline---Material-Design-Icons" fill="#ffffff" d="M421.73 2229.5c.704 0 1.3.244 1.788.732.488.489.732 1.084.732 1.788v17.46c0 .704-.244 1.3-.732 1.788a2.432 2.432 0 0 1-1.788.732h-17.46a2.432 2.432 0 0 1-1.788-.732 2.432 2.432 0 0 1-.732-1.788v-17.46c0-.704.244-1.3.732-1.788a2.432 2.432 0 0 1 1.788-.732h5.214a3.739 3.739 0 0 1 1.348-1.787c.625-.45 1.348-.674 2.168-.674.82 0 1.543.225 2.168.674a3.739 3.739 0 0 1 1.348 1.787h5.214zm-8.73 0c-.352 0-.645.117-.879.352a1.192 1.192 0 0 0-.351.878c0 .352.117.645.351.88.234.234.527.35.879.35s.645-.116.879-.35c.234-.235.351-.528.351-.88 0-.351-.117-.644-.351-.878a1.192 1.192 0 0 0-.879-.352zm-6.27 4.98v-2.46h-2.46v17.46h17.46v-17.46h-2.46v2.46h-12.54z" transform="translate(-401 -2227)"/></g></svg>
