<svg xmlns="http://www.w3.org/2000/svg" width="28" height="29" viewBox="0 0 28 29"><g id="Styleguide" fill-rule="evenodd"><path id="calendar-multiple-check---Material-Design-Icons" fill="#ffffff" d="M324.25 2247.02v-11.25h-17.52v11.25h17.52zm0-17.52c.703 0 1.29.244 1.758.732.469.489.722 1.084.762 1.788v15c-.04.703-.293 1.289-.762 1.757-.469.47-1.055.703-1.758.703h-17.52c-.703 0-1.289-.234-1.757-.703-.47-.468-.703-1.054-.703-1.757v-15c0-.704.234-1.3.703-1.788.468-.488 1.054-.732 1.757-.732h1.29v-2.52h2.46v2.52h10.02v-2.52h2.52v2.52h1.23zm-4.336 10.078l-5.566 5.567-3.34-3.399 1.347-1.289 1.993 1.992 4.218-4.219 1.348 1.348zM301.75 2252h17.52v2.52h-17.52c-.703-.04-1.29-.293-1.758-.762-.469-.469-.722-1.055-.762-1.758v-15h2.52v15z" transform="translate(-299 -2226)"/></g></svg>
