<svg width="20" height="20" viewBox="0 0 20 20" xmlns="http://www.w3.org/2000/svg" xmlns:xlink="http://www.w3.org/1999/xlink"><defs><path d="M5 1v3a1 1 0 0 1-1 1H1a1 1 0 1 0 0 2h3a3 3 0 0 0 3-3V1a1 1 0 1 0-2 0zm14 4h-3a1 1 0 0 1-1-1V1a1 1 0 0 0-2 0v3a3 3 0 0 0 3 3h3a1 1 0 0 0 0-2zm-4 14v-3a1 1 0 0 1 1-1h3a1 1 0 0 0 0-2h-3a3 3 0 0 0-3 3v3a1 1 0 0 0 2 0zM1 15h3a1 1 0 0 1 1 1v3a1 1 0 0 0 2 0v-3a3 3 0 0 0-3-3H1a1 1 0 0 0 0 2z" id="a"/></defs><use fill="#7F8FA4" fill-rule="nonzero" xlink:href="#a"/></svg>