<svg width="18" height="18" viewBox="0 0 18 18" xmlns="http://www.w3.org/2000/svg"><path fill="#fff" opacity=".7" d="M15.443 9.882c.036-.288.063-.576.063-.882 0-.306-.027-.594-.063-.882l1.9-1.485a.454.454 0 0 0 .107-.576l-1.8-3.114a.452.452 0 0 0-.549-.198l-2.24.9a6.575 6.575 0 0 0-1.522-.882L10.997.378a.439.439 0 0 0-.44-.378h-3.6a.439.439 0 0 0-.442.378l-.342 2.385a6.915 6.915 0 0 0-1.52.882l-2.242-.9a.439.439 0 0 0-.549.198l-1.8 3.114a.444.444 0 0 0 .108.576l1.9 1.485A7.138 7.138 0 0 0 2.005 9c0 .297.027.594.063.882L.17 11.367a.454.454 0 0 0-.108.576l1.8 3.114c.108.198.351.27.55.198l2.24-.9c.468.36.972.657 1.521.882l.342 2.385a.439.439 0 0 0 .441.378h3.6a.439.439 0 0 0 .441-.378l.342-2.385a6.915 6.915 0 0 0 1.521-.882l2.241.9a.44.44 0 0 0 .55-.198l1.8-3.114a.454.454 0 0 0-.109-.576l-1.899-1.485zM8.756 12.15A3.153 3.153 0 0 1 5.606 9a3.153 3.153 0 0 1 3.15-3.15A3.153 3.153 0 0 1 11.906 9a3.153 3.153 0 0 1-3.15 3.15z"/></svg>