<svg width="116" height="116" viewBox="0 0 116 116" xmlns="http://www.w3.org/2000/svg"><defs><linearGradient x1="100%" y1="50%" x2="0%" y2="50%" id="a"><stop stop-color="#517FA4" offset="0%"/><stop stop-color="#243949" offset="100%"/></linearGradient><linearGradient x1="-16%" y1="25.2%" x2="56.7%" y2="81%" id="b"><stop stop-color="#04C4C9" offset="0%"/><stop stop-color="#A6A6FF" offset="100%"/></linearGradient></defs><g fill="none" fill-rule="evenodd"><rect fill="#394F63" fill-rule="nonzero" width="116" height="116" rx="12"/><circle fill="#508892" fill-rule="nonzero" cx="15" cy="15" r="5"/><circle fill="#508892" fill-rule="nonzero" cx="101" cy="15" r="5"/><circle fill="#508892" fill-rule="nonzero" cx="15" cy="101" r="5"/><circle fill="#508892" fill-rule="nonzero" cx="101" cy="101" r="5"/><path stroke="#000" stroke-width="4" stroke-linecap="round" stroke-linejoin="round" d="M61 16H33l-4 48h28l-6 38 36-60H53z"/><rect fill="url(#a)" fill-rule="nonzero" width="116" height="116" rx="4"/><circle fill="#C9D0DF" fill-rule="nonzero" cx="15" cy="15" r="5"/><circle fill="#C9D0DF" fill-rule="nonzero" cx="101" cy="15" r="5"/><circle fill="#C9D0DF" fill-rule="nonzero" cx="15" cy="101" r="5"/><circle fill="#C9D0DF" fill-rule="nonzero" cx="101" cy="101" r="5"/><path fill="url(#b)" fill-rule="nonzero" d="M62 16H34l-4 48h28l-6 38 36-60H54z"/></g></svg>