<svg xmlns="http://www.w3.org/2000/svg" xmlns:xlink="http://www.w3.org/1999/xlink" width="131" height="60" viewBox="0 0 131 60">
  <defs>
    <path id="b" d="M36.036 40c-2.064 0-4.55-.826-6.141-1.877l1.168-3.855c1.468 1.076 3.382 1.777 5.097 1.777 1.492 0 2.064-.7 2.064-1.602 0-.951-.473-1.602-3.257-2.728-3.211-1.3-4.326-3.178-4.326-5.381 0-2.678 2.163-5.281 6.414-5.281 1.99 0 4.029.7 5.102 1.426l-1.069 3.805c-1.045-.726-2.74-1.502-4.028-1.502-1.541 0-2.163.726-2.163 1.477 0 1.201.92 1.601 3.208 2.578 3.401 1.452 4.421 3.104 4.421 5.457 0 2.927-2.114 5.706-6.49 5.706z"/>
    <path id="c" d="M56.793 39.579v-7.35h-7.065v7.35h-4.254V21.263h4.254v7.17h7.062v-7.17h4.263V39.58z"/>
    <path id="d" d="M76.402 39.579l-1.378-3.334H68.67l-1.38 3.334h-4.343l8.66-18.526h.578l8.657 18.526h-4.44zm-4.544-11.01l-1.832 4.412h3.64l-1.808-4.412z"/>
    <path id="e" d="M92.219 39.579l-3.13-5.999c-.242.022-.484.03-.727.026-.626 0-.977-.026-1.578-.05v6.023h-4.258V21.353a46.656 46.656 0 0 1 5.41-.3c5.71 0 7.965 2.735 7.965 6.098 0 2.184-1.177 4.141-3.156 5.32l4.308 7.108h-4.834zm-3.781-14.711a8.855 8.855 0 0 0-1.654.124v5.07c.45.05.901.074 1.353.076 2.028 0 3.33-.979 3.33-2.837 0-1.53-1.203-2.433-3.03-2.433z"/>
    <path id="f" d="M99.158 39.579V21.263h11.579v3.897H103.4v3.273h6.687v3.697h-6.687v3.572h7.336v3.877z"/>
    <linearGradient id="g" x1="-.791%" x2="298.361%" y1="30.081%" y2="155.853%">
      <stop offset="0%" stop-color="#FBB03B"/>
      <stop offset="100%" stop-color="#F15A24"/>
    </linearGradient>
    <linearGradient id="h" x1="1576%" x2="32486%" y1="3693.827%" y2="25887.068%">
      <stop offset="0%" stop-color="#FBB03B"/>
      <stop offset="100%" stop-color="#F15A24"/>
    </linearGradient>
  </defs>
  <g fill="none" fill-rule="nonzero" transform="translate(10 8)">
    <use fill="#FFF" xlink:href="#b"/>
    <use fill="#F7981C" xlink:href="#b"/>
    <use fill="#FFF" xlink:href="#c"/>
    <use fill="#F7981C" xlink:href="#c"/>
    <use fill="#FFF" xlink:href="#d"/>
    <use fill="#F7981C" xlink:href="#d"/>
    <use fill="#FFF" xlink:href="#e"/>
    <use fill="#F7981C" xlink:href="#e"/>
    <g>
      <use fill="#FFF" xlink:href="#f"/>
      <use fill="#F7981C" xlink:href="#f"/>
    </g>
    <path fill="url(#g)" d="M18.803 6.645c-2.592 9.198-3.248 10.533-4.701 10.336-3.248-.442 4.282-14.87.286-15.36-3.272-.402-3.288 5.224-5.077 11.378-.54 1.849-1.555 5.987-3.03 5.786-2.217-.302-.668-4.034-.246-6.37.54-3.007-1.93-4.657-3.335-.575-.713 2.073-.873 2.281-1.086 4.552-.244 2.578-.535 5.163-1.11 7.71-1.238 5.48-.846 14.27 8.817 15.583 5.214.71 9.43-2.329 12.026-5.266l.014.007c1.29-1.762 2.614-3.75 4.119-4.744 3.996-2.64 7.477-1.935 8.108-3.82 1.196-3.588-9.138-1.622-11.21-1.098-1.483.375-5.046.804-5.623 2.387-.626 1.714 1.46 1.304 2.14 2.22.79 1.064-.337 2.376-1.48 3.396-1.336 1.219-3.522 2.404-6.964 1.94-7.155-.964-6.474-8.689-1.886-11.087 8.154-4.256 15.359.33 18.085-5.748 2.58-5.74 6.254-12.55 3.486-12.986-3.032-.473-3.67 3.533-5.533 7.774-1.63 3.72-2.02 4.085-3.032 3.948-2.138-.29 5.484-16.08 1.843-16.576A3.479 3.479 0 0 0 22.947 0c-3.076 0-3.543 4.514-4.144 6.645"/>
    <path fill="url(#g)" d="M18.803 6.645c-2.592 9.198-3.248 10.533-4.701 10.336-3.248-.442 4.282-14.87.286-15.36-3.272-.402-3.288 5.224-5.077 11.378-.54 1.849-1.555 5.987-3.03 5.786-2.217-.302-.668-4.034-.246-6.37.54-3.007-1.93-4.657-3.335-.575-.713 2.073-.873 2.281-1.086 4.552-.244 2.578-.535 5.163-1.11 7.71-1.238 5.48-.846 14.27 8.817 15.583 5.214.71 9.43-2.329 12.026-5.266l.014.007c1.29-1.762 2.614-3.75 4.119-4.744 3.996-2.64 7.477-1.935 8.108-3.82 1.196-3.588-9.138-1.622-11.21-1.098-1.483.375-5.046.804-5.623 2.387-.626 1.714 1.46 1.304 2.14 2.22.79 1.064-.337 2.376-1.48 3.396-1.336 1.219-3.522 2.404-6.964 1.94-7.155-.964-6.474-8.689-1.886-11.087 8.154-4.256 15.359.33 18.085-5.748 2.58-5.74 6.254-12.55 3.486-12.986-3.032-.473-3.67 3.533-5.533 7.774-1.63 3.72-2.02 4.085-3.032 3.948-2.138-.29 5.484-16.08 1.843-16.576A3.479 3.479 0 0 0 22.947 0c-3.076 0-3.543 4.514-4.144 6.645"/>
    <path fill="url(#h)" d="M18.803 6.645c-2.592 9.198-3.248 10.533-4.701 10.336-3.248-.442 4.282-14.87.286-15.36-3.272-.402-3.288 5.224-5.077 11.378-.54 1.849-1.555 5.987-3.03 5.786-2.217-.302-.668-4.034-.246-6.37.54-3.007-1.93-4.657-3.335-.575-.713 2.073-.873 2.281-1.086 4.552-.244 2.578-.535 5.163-1.11 7.71-1.238 5.48-.846 14.27 8.817 15.583 5.214.71 9.43-2.329 12.026-5.266l.014.007c1.29-1.762 2.614-3.75 4.119-4.744 3.996-2.64 7.477-1.935 8.108-3.82 1.196-3.588-9.138-1.622-11.21-1.098-1.483.375-5.046.804-5.623 2.387-.626 1.714 1.46 1.304 2.14 2.22.79 1.064-.337 2.376-1.48 3.396-1.336 1.219-3.522 2.404-6.964 1.94-7.155-.964-6.474-8.689-1.886-11.087 8.154-4.256 15.359.33 18.085-5.748 2.58-5.74 6.254-12.55 3.486-12.986-3.032-.473-3.67 3.533-5.533 7.774-1.63 3.72-2.02 4.085-3.032 3.948-2.138-.29 5.484-16.08 1.843-16.576A3.479 3.479 0 0 0 22.947 0c-3.076 0-3.543 4.514-4.144 6.645"/>
  </g>
</svg>
