<?xml version="1.0" encoding="UTF-8"?>
<svg width="132px" height="94px" viewBox="0 0 16 14" version="1.1" xmlns="http://www.w3.org/2000/svg"
     xmlns:xlink="http://www.w3.org/1999/xlink">
  <!-- Generator: sketchtool 51.2 (57519) - http://www.bohemiancoding.com/sketch -->
  <title>5F6A67BD-DCB2-4446-AA7D-D87A0112151D</title>
  <desc>Created with sketchtool.</desc>
  <defs></defs>
  <g id="eSports" stroke="none" stroke-width="1" fill="none" fill-rule="evenodd">
    <g id="Styleguide" transform="translate(-262.000000, -2389.000000)">
      <g id="MGT_samo-ikonica-Copy-2" transform="translate(262.000000, 2388.000000)">
        <g id="Rectangle_5_copy_7" transform="translate(3.193804, 1.000000)"></g>
        <g id="Rectangle_5_copy_8" transform="translate(0.000000, 0.396937)" fill="#D3B747">
          <polygon id="Shape"
                   points="10.0836965 2.84508361 8.91574019 4.09525084 10.049097 5.23304348 7.84759021 7.43366309 5.64371766 5.2306777 9.04778032 1.80961098 7.83280408 0.603062841 3.20075339 5.19814821 7.84759021 9.84572434 12.4602711 5.22077099"></polygon>
          <path
            d="M11.2730928,8.02969196 L7.84759021,11.4538638 L4.4219398,8.02969196 L3.21553952,9.23564865 L7.84759021,13.865925 L9.05399049,12.6598205 L12.479493,9.23564865 L11.2730928,8.02969196 Z M2.38662911,6.00635804 L0,8.3733216 L1.27944376,9.6166872 L3.63413484,7.25090653 L2.38662911,6.00635804 Z M13.2704031,6.03001584 L12.0588277,7.25001936 L14.4161802,9.6166872 L15.6289386,8.38810773 L13.2704031,6.03001584 Z"
            id="Shape"></path>
        </g>
      </g>
    </g>
  </g>
</svg>
