<svg xmlns:xlink="http://www.w3.org/1999/xlink" width="210" height="210" viewBox="0 0 210 210">
  <defs>
    <circle id="path-1" cx="12" cy="12" r="10.378"/>
    <filter id="filter-2" width="894.9%" height="894.9%" x="-397.5%" y="-397.5%" filterUnits="objectBoundingBox">
      <feMorphology in="SourceAlpha" radius="60" result="shadowSpreadInner1"/>
      <feGaussianBlur in="shadowSpreadInner1" result="shadowBlurInner1" stdDeviation="52.5"/>
      <feOffset in="shadowBlurInner1" result="shadowOffsetInner1"/>
      <feComposite in="shadowOffsetInner1" in2="SourceAlpha" k2="-1" k3="1" operator="arithmetic" result="shadowInnerInner1"/>
      <feColorMatrix in="shadowInnerInner1" values="0 0 0 0 0 0 0 0 0 0 0 0 0 0 0 0 0 0 0.08 0"/>
    </filter>
    <linearGradient id="linearGradient-3" x1="1576%" x2="32486%" y1="3693.827%" y2="25887.068%">
      <stop offset="0%" stop-color="#FBB03B"/>
      <stop offset="100%" stop-color="#F15A24"/>
    </linearGradient>
    <path id="path-4" d="M13.069 6.6c-1.057 3.749-1.324 4.293-1.916 4.212-1.324-.18 1.745-6.06.116-6.26C9.936 4.39 9.93 6.682 9.2 9.19c-.22.753-.634 2.44-1.235 2.358-.903-.123-.272-1.644-.1-2.596.22-1.226-.787-1.898-1.36-.235-.29.845-.355.93-.442 1.855-.1 1.051-.218 2.105-.452 3.142-.505 2.234-.345 5.816 3.593 6.352 2.125.289 3.843-.95 4.901-2.147l.006.003c.526-.718 1.066-1.528 1.679-1.933 1.628-1.076 3.047-.789 3.304-1.557.487-1.462-3.724-.661-4.569-.448-.604.153-2.056.328-2.291.973-.255.699.595.532.872.905.322.434-.137.969-.603 1.384-.544.497-1.436.98-2.838.79-2.916-.392-2.639-3.54-.769-4.518 3.323-1.734 6.26.134 7.37-2.342 1.052-2.34 2.55-5.115 1.421-5.293-1.235-.192-1.495 1.44-2.255 3.169-.664 1.515-.823 1.664-1.235 1.608-.872-.118 2.235-6.553.75-6.755a1.418 1.418 0 0 0-.19-.013c-1.253 0-1.443 1.84-1.688 2.708"/>
    <filter id="filter-5" width="289.4%" height="260.3%" x="-94.7%" y="-49.3%" filterUnits="objectBoundingBox">
      <feOffset dy="5" in="SourceAlpha" result="shadowOffsetOuter1"/>
      <feGaussianBlur in="shadowOffsetOuter1" result="shadowBlurOuter1" stdDeviation="3.5"/>
      <feColorMatrix in="shadowBlurOuter1" values="0 0 0 0 0 0 0 0 0 0 0 0 0 0 0 0 0 0 0.1 0"/>
    </filter>
    <circle id="path-6" cx="10" cy="10" r="8.649"/>
    <filter id="filter-7" width="1053.9%" height="1053.9%" x="-477%" y="-477%" filterUnits="objectBoundingBox">
      <feMorphology in="SourceAlpha" radius="60" result="shadowSpreadInner1"/>
      <feGaussianBlur in="shadowSpreadInner1" result="shadowBlurInner1" stdDeviation="52.5"/>
      <feOffset in="shadowBlurInner1" result="shadowOffsetInner1"/>
      <feComposite in="shadowOffsetInner1" in2="SourceAlpha" k2="-1" k3="1" operator="arithmetic" result="shadowInnerInner1"/>
      <feColorMatrix in="shadowInnerInner1" values="0 0 0 0 0 0 0 0 0 0 0 0 0 0 0 0 0 0 0.08 0"/>
    </filter>
    <path id="path-8" d="M10.89 5.5c-.88 3.124-1.103 3.577-1.596 3.51-1.103-.15 1.454-5.05.097-5.216-1.111-.137-1.117 1.774-1.724 3.864-.184.628-.528 2.033-1.03 1.965-.752-.103-.226-1.37-.083-2.163.183-1.022-.656-1.582-1.132-.196-.243.704-.297.775-.37 1.546-.082.876-.181 1.754-.376 2.619-.42 1.861-.288 4.846 2.994 5.292 1.771.242 3.203-.79 4.085-1.788l.004.002c.438-.598.888-1.273 1.4-1.611 1.356-.897 2.538-.657 2.753-1.297.406-1.219-3.104-.551-3.808-.373-.503.127-1.713.273-1.91.81-.212.582.497.443.728.755.268.36-.115.806-.503 1.153-.454.414-1.196.816-2.365.659-2.43-.328-2.199-2.951-.64-3.766 2.769-1.445 5.216.112 6.142-1.952.876-1.95 2.124-4.262 1.183-4.41-1.03-.16-1.246 1.2-1.879 2.64-.553 1.263-.686 1.387-1.03 1.34-.726-.098 1.863-5.46.627-5.629a1.181 1.181 0 0 0-.16-.01c-1.044 0-1.202 1.532-1.407 2.256"/>
    <filter id="filter-9" width="327.3%" height="292.4%" x="-113.6%" y="-59.2%" filterUnits="objectBoundingBox">
      <feOffset dy="5" in="SourceAlpha" result="shadowOffsetOuter1"/>
      <feGaussianBlur in="shadowOffsetOuter1" result="shadowBlurOuter1" stdDeviation="3.5"/>
      <feColorMatrix in="shadowBlurOuter1" values="0 0 0 0 0 0 0 0 0 0 0 0 0 0 0 0 0 0 0.1 0"/>
    </filter>
    <circle id="path-10" cx="7" cy="7" r="6.054"/>
    <filter id="filter-11" width="1462.7%" height="1462.7%" x="-681.4%" y="-681.4%" filterUnits="objectBoundingBox">
      <feMorphology in="SourceAlpha" radius="60" result="shadowSpreadInner1"/>
      <feGaussianBlur in="shadowSpreadInner1" result="shadowBlurInner1" stdDeviation="52.5"/>
      <feOffset in="shadowBlurInner1" result="shadowOffsetInner1"/>
      <feComposite in="shadowOffsetInner1" in2="SourceAlpha" k2="-1" k3="1" operator="arithmetic" result="shadowInnerInner1"/>
      <feColorMatrix in="shadowInnerInner1" values="0 0 0 0 0 0 0 0 0 0 0 0 0 0 0 0 0 0 0.08 0"/>
    </filter>
    <path id="path-12" d="M7.623 3.85c-.616 2.187-.772 2.504-1.117 2.457-.773-.105 1.018-3.535.068-3.652-.778-.095-.782 1.243-1.207 2.706-.129.44-.37 1.423-.72 1.375-.528-.072-.16-.959-.059-1.514.128-.715-.46-1.107-.793-.137-.17.493-.207.542-.258 1.082C3.479 6.78 3.41 7.395 3.273 8c-.294 1.303-.201 3.393 2.096 3.705 1.24.169 2.242-.554 2.86-1.252l.003.002c.306-.42.621-.892.979-1.128.95-.628 1.777-.46 1.927-.908.285-.853-2.172-.386-2.665-.261-.352.089-1.2.19-1.337.567-.148.408.348.31.51.528.187.253-.081.565-.353.807-.317.29-.837.572-1.655.462-1.701-.23-1.54-2.066-.449-2.636 1.939-1.012 3.652.078 4.3-1.367.613-1.365 1.487-2.983.829-3.087-.721-.113-.873.84-1.316 1.848-.387.884-.48.971-.72.939-.509-.07 1.303-3.823.438-3.941a.827.827 0 0 0-.111-.008c-.732 0-.843 1.073-.986 1.58"/>
    <filter id="filter-13" width="424.7%" height="374.9%" x="-162.3%" y="-84.6%" filterUnits="objectBoundingBox">
      <feOffset dy="5" in="SourceAlpha" result="shadowOffsetOuter1"/>
      <feGaussianBlur in="shadowOffsetOuter1" result="shadowBlurOuter1" stdDeviation="3.5"/>
      <feColorMatrix in="shadowBlurOuter1" values="0 0 0 0 0 0 0 0 0 0 0 0 0 0 0 0 0 0 0.1 0"/>
    </filter>
    <circle id="path-14" cx="8" cy="8" r="6.919"/>
    <filter id="filter-15" width="1292.4%" height="1292.4%" x="-596.2%" y="-596.2%" filterUnits="objectBoundingBox">
      <feMorphology in="SourceAlpha" radius="60" result="shadowSpreadInner1"/>
      <feGaussianBlur in="shadowSpreadInner1" result="shadowBlurInner1" stdDeviation="52.5"/>
      <feOffset in="shadowBlurInner1" result="shadowOffsetInner1"/>
      <feComposite in="shadowOffsetInner1" in2="SourceAlpha" k2="-1" k3="1" operator="arithmetic" result="shadowInnerInner1"/>
      <feColorMatrix in="shadowInnerInner1" values="0 0 0 0 0 0 0 0 0 0 0 0 0 0 0 0 0 0 0.08 0"/>
    </filter>
    <path id="path-16" d="M8.712 4.4c-.704 2.5-.882 2.862-1.277 2.808-.882-.12 1.164-4.04.078-4.173-.89-.11-.894 1.42-1.38 3.091-.146.503-.422 1.627-.823 1.572-.602-.082-.181-1.095-.067-1.73.147-.817-.524-1.266-.906-.156-.194.563-.237.62-.295 1.236-.066.7-.145 1.403-.301 2.095-.337 1.489-.23 3.877 2.395 4.234 1.417.193 2.562-.633 3.268-1.43l.004.001c.35-.479.71-1.019 1.118-1.289 1.086-.717 2.032-.526 2.204-1.037.324-.975-2.483-.442-3.046-.3-.403.103-1.371.22-1.528.65-.17.465.397.354.582.603.214.289-.092.645-.403.922-.363.331-.957.654-1.892.528-1.944-.262-1.759-2.361-.512-3.013 2.215-1.156 4.173.09 4.913-1.562.702-1.56 1.7-3.41.948-3.528-.824-.128-.998.96-1.504 2.112-.443 1.01-.548 1.11-.823 1.073-.582-.079 1.49-4.37.5-4.504a.945.945 0 0 0-.127-.008c-.835 0-.962 1.226-1.126 1.805"/>
    <filter id="filter-17" width="384.1%" height="340.5%" x="-142%" y="-74%" filterUnits="objectBoundingBox">
      <feOffset dy="5" in="SourceAlpha" result="shadowOffsetOuter1"/>
      <feGaussianBlur in="shadowOffsetOuter1" result="shadowBlurOuter1" stdDeviation="3.5"/>
      <feColorMatrix in="shadowBlurOuter1" values="0 0 0 0 0 0 0 0 0 0 0 0 0 0 0 0 0 0 0.1 0"/>
    </filter>
    <circle id="path-18" cx="40" cy="40" r="34.595"/>
    <filter id="filter-19" width="338.5%" height="338.5%" x="-119.2%" y="-119.2%" filterUnits="objectBoundingBox">
      <feMorphology in="SourceAlpha" radius="60" result="shadowSpreadInner1"/>
      <feGaussianBlur in="shadowSpreadInner1" result="shadowBlurInner1" stdDeviation="52.5"/>
      <feOffset in="shadowBlurInner1" result="shadowOffsetInner1"/>
      <feComposite in="shadowOffsetInner1" in2="SourceAlpha" k2="-1" k3="1" operator="arithmetic" result="shadowInnerInner1"/>
      <feColorMatrix in="shadowInnerInner1" values="0 0 0 0 0 0 0 0 0 0 0 0 0 0 0 0 0 0 0.08 0"/>
    </filter>
    <path id="path-20" d="M43.562 22c-3.521 12.495-4.413 14.31-6.387 14.041-4.412-.6 5.818-20.2.39-20.867-4.446-.545-4.468 7.098-6.898 15.458-.733 2.512-2.112 8.133-4.117 7.86-3.01-.41-.907-5.48-.333-8.652.732-4.086-2.623-6.328-4.53-.782-.97 2.816-1.186 3.099-1.477 6.183-.33 3.502-.727 7.015-1.507 10.473-1.682 7.446-1.15 19.386 11.977 21.171 7.084.965 12.81-3.164 16.338-7.154l.02.01c1.75-2.394 3.55-5.095 5.594-6.445 5.429-3.586 10.158-2.63 11.016-5.188 1.624-4.875-12.414-2.206-15.23-1.493-2.014.51-6.854 1.092-7.639 3.242-.85 2.329 1.985 1.772 2.909 3.018 1.073 1.445-.46 3.227-2.012 4.612-1.814 1.655-4.784 3.266-9.46 2.636-9.72-1.31-8.796-11.804-2.562-15.062 11.076-5.782 20.865.447 24.568-7.81 3.506-7.798 8.497-17.048 4.736-17.64-4.119-.643-4.986 4.799-7.517 10.56-2.215 5.053-2.743 5.55-4.118 5.363-2.906-.393 7.449-21.845 2.503-22.517a4.726 4.726 0 0 0-.635-.044c-4.178 0-4.813 6.132-5.63 9.027"/>
    <filter id="filter-21" width="156.8%" height="148.1%" x="-28.4%" y="-14.8%" filterUnits="objectBoundingBox">
      <feOffset dy="5" in="SourceAlpha" result="shadowOffsetOuter1"/>
      <feGaussianBlur in="shadowOffsetOuter1" result="shadowBlurOuter1" stdDeviation="3.5"/>
      <feColorMatrix in="shadowBlurOuter1" values="0 0 0 0 0 0 0 0 0 0 0 0 0 0 0 0 0 0 0.1 0"/>
    </filter>
  </defs>
  <g id="Dashboard" fill="none" fill-rule="evenodd">
    <g id="gn.org---Dashboard---Feed---Task-completed" transform="translate(-615 -354)">
      <g id="Modal-Copy" transform="translate(535 279)">
        <g id="Circles" transform="translate(80 75)">
          <circle id="Oval-2" cx="105" cy="105" r="105" fill="#FFF" opacity=".06"/>
          <circle id="Oval-2" cx="105" cy="105" r="85" fill="#FFF" opacity=".06"/>
          <circle id="Oval-2" cx="105" cy="105" r="60" fill="#FFF" opacity=".06"/>
          <g id="Coin" transform="translate(175 121)">
            <g id="GNation-coin">
              <circle id="coin" cx="12" cy="12" r="12" fill="#FBB03B"/>
              <g id="coin">
                <use fill="#E09F36" xlink:href="#path-1"/>
                <use fill="#000" filter="url(#filter-2)" xlink:href="#path-1"/>
              </g>
              <g id="hand" fill-rule="nonzero">
                <use fill="#000" filter="url(#filter-5)" xlink:href="#path-4"/>
                <use fill="url(#linearGradient-3)" xlink:href="#path-4"/>
              </g>
            </g>
          </g>
          <g id="Coin" transform="translate(66 170)">
            <g id="GNation-coin">
              <circle id="coin" cx="10" cy="10" r="10" fill="#FBB03B"/>
              <g id="coin">
                <use fill="#E09F36" xlink:href="#path-6"/>
                <use fill="#000" filter="url(#filter-7)" xlink:href="#path-6"/>
              </g>
              <g id="hand" fill-rule="nonzero">
                <use fill="#000" filter="url(#filter-9)" xlink:href="#path-8"/>
                <use fill="url(#linearGradient-3)" xlink:href="#path-8"/>
              </g>
            </g>
          </g>
          <g id="Coin" transform="translate(20 73)">
            <g id="GNation-coin">
              <circle id="coin" cx="7" cy="7" r="7" fill="#FBB03B"/>
              <g id="coin">
                <use fill="#E09F36" xlink:href="#path-10"/>
                <use fill="#000" filter="url(#filter-11)" xlink:href="#path-10"/>
              </g>
              <g id="hand" fill-rule="nonzero">
                <use fill="#000" filter="url(#filter-13)" xlink:href="#path-12"/>
                <use fill="url(#linearGradient-3)" xlink:href="#path-12"/>
              </g>
            </g>
          </g>
          <g id="Coin" transform="translate(123 29)">
            <g id="GNation-coin">
              <circle id="coin" cx="8" cy="8" r="8" fill="#FBB03B"/>
              <g id="coin">
                <use fill="#E09F36" xlink:href="#path-14"/>
                <use fill="#000" filter="url(#filter-15)" xlink:href="#path-14"/>
              </g>
              <g id="hand" fill-rule="nonzero">
                <use fill="#000" filter="url(#filter-17)" xlink:href="#path-16"/>
                <use fill="url(#linearGradient-3)" xlink:href="#path-16"/>
              </g>
            </g>
          </g>
          <g id="Coin" transform="translate(65 65)">
            <g id="GNation-coin">
              <circle id="coin" cx="40" cy="40" r="40" fill="#FBB03B"/>
              <g id="coin">
                <use fill="#E09F36" xlink:href="#path-18"/>
                <use fill="#000" filter="url(#filter-19)" xlink:href="#path-18"/>
              </g>
              <g id="hand" fill-rule="nonzero">
                <use fill="#000" filter="url(#filter-21)" xlink:href="#path-20"/>
                <use fill="url(#linearGradient-3)" xlink:href="#path-20"/>
              </g>
            </g>
          </g>
        </g>
      </g>
    </g>
  </g>
</svg>
