<svg width="134" height="127" xmlns="http://www.w3.org/2000/svg" xmlns:xlink="http://www.w3.org/1999/xlink"><defs><filter x="-2.7%" y="-2.7%" width="105.4%" height="106.3%" filterUnits="objectBoundingBox" id="a"><feOffset dy="2" in="SourceAlpha" result="shadowOffsetOuter1"/><feGaussianBlur stdDeviation="4" in="shadowOffsetOuter1" result="shadowBlurOuter1"/><feColorMatrix values="0 0 0 0 0 0 0 0 0 0 0 0 0 0 0 0 0 0 0.706068841 0" in="shadowBlurOuter1" result="shadowMatrixOuter1"/><feMerge><feMergeNode in="shadowMatrixOuter1"/><feMergeNode in="SourceGraphic"/></feMerge></filter><path d="M118.458 37.708c-3.757-.918-4.35-1.511-5.271-5.271a.708.708 0 0 0-1.377 0c-.919 3.757-1.508 4.346-5.268 5.268a.708.708 0 0 0 0 1.377c3.756.922 4.346 1.511 5.268 5.271a.708.708 0 0 0 1.377 0c.922-3.757 1.514-4.35 5.271-5.271a.708.708 0 0 0 .542-.688.71.71 0 0 0-.542-.686z" id="c"/><filter x="-46.2%" y="-46.2%" width="192.3%" height="192.3%" filterUnits="objectBoundingBox" id="b"><feOffset in="SourceAlpha" result="shadowOffsetOuter1"/><feGaussianBlur stdDeviation="2" in="shadowOffsetOuter1" result="shadowBlurOuter1"/><feColorMatrix values="0 0 0 0 0.984313725 0 0 0 0 0.690196078 0 0 0 0 0.231372549 0 0 0 1 0" in="shadowBlurOuter1"/></filter><path d="M83.75 107.578c-1.734-.424-2.008-.698-2.433-2.433a.327.327 0 0 0-.636 0c-.423 1.734-.696 2.006-2.431 2.431a.327.327 0 0 0 0 .636c1.734.426 2.006.698 2.431 2.433a.327.327 0 0 0 .636 0c.425-1.734.699-2.007 2.433-2.433a.327.327 0 0 0 0-.634z" id="e"/><filter x="-100%" y="-100%" width="300%" height="300%" filterUnits="objectBoundingBox" id="d"><feOffset in="SourceAlpha" result="shadowOffsetOuter1"/><feGaussianBlur stdDeviation="2" in="shadowOffsetOuter1" result="shadowBlurOuter1"/><feColorMatrix values="0 0 0 0 0.984313725 0 0 0 0 0.690196078 0 0 0 0 0.231372549 0 0 0 1 0" in="shadowBlurOuter1"/></filter><path d="M40.75 98.578c-1.734-.424-2.008-.698-2.433-2.433a.327.327 0 0 0-.636 0c-.423 1.734-.696 2.006-2.431 2.431a.327.327 0 0 0 0 .636c1.734.426 2.006.698 2.431 2.433a.327.327 0 0 0 .636 0c.425-1.734.699-2.007 2.433-2.433a.327.327 0 0 0 0-.634z" id="g"/><filter x="-100%" y="-100%" width="300%" height="300%" filterUnits="objectBoundingBox" id="f"><feOffset in="SourceAlpha" result="shadowOffsetOuter1"/><feGaussianBlur stdDeviation="2" in="shadowOffsetOuter1" result="shadowBlurOuter1"/><feColorMatrix values="0 0 0 0 0.984313725 0 0 0 0 0.690196078 0 0 0 0 0.231372549 0 0 0 1 0" in="shadowBlurOuter1"/></filter><path d="M83.75 3.578c-1.734-.424-2.008-.698-2.433-2.433a.327.327 0 0 0-.636 0c-.423 1.734-.696 2.006-2.431 2.431a.327.327 0 0 0 0 .636c1.734.426 2.006.698 2.431 2.433a.327.327 0 0 0 .636 0c.425-1.734.699-2.007 2.433-2.433a.327.327 0 0 0 0-.634z" id="i"/><filter x="-100%" y="-100%" width="300%" height="300%" filterUnits="objectBoundingBox" id="h"><feOffset in="SourceAlpha" result="shadowOffsetOuter1"/><feGaussianBlur stdDeviation="2" in="shadowOffsetOuter1" result="shadowBlurOuter1"/><feColorMatrix values="0 0 0 0 0.984313725 0 0 0 0 0.690196078 0 0 0 0 0.231372549 0 0 0 1 0" in="shadowBlurOuter1"/></filter><path d="M11.75 68.578c-1.734-.424-2.008-.698-2.433-2.433a.327.327 0 0 0-.636 0c-.423 1.734-.696 2.006-2.431 2.431a.327.327 0 0 0 0 .636c1.734.426 2.006.698 2.431 2.433a.327.327 0 0 0 .636 0c.425-1.734.699-2.007 2.433-2.433a.327.327 0 0 0 0-.634z" id="k"/><filter x="-100%" y="-100%" width="300%" height="300%" filterUnits="objectBoundingBox" id="j"><feOffset in="SourceAlpha" result="shadowOffsetOuter1"/><feGaussianBlur stdDeviation="2" in="shadowOffsetOuter1" result="shadowBlurOuter1"/><feColorMatrix values="0 0 0 0 0.984313725 0 0 0 0 0.690196078 0 0 0 0 0.231372549 0 0 0 1 0" in="shadowBlurOuter1"/></filter><path d="M16.458 14.708c-3.757-.918-4.35-1.511-5.271-5.271a.708.708 0 0 0-1.377 0c-.919 3.757-1.508 4.346-5.268 5.268a.708.708 0 0 0 0 1.377c3.756.922 4.346 1.511 5.268 5.271a.708.708 0 0 0 1.377 0c.922-3.757 1.514-4.35 5.271-5.271a.708.708 0 0 0 .542-.688.71.71 0 0 0-.542-.686z" id="m"/><filter x="-46.2%" y="-46.2%" width="192.3%" height="192.3%" filterUnits="objectBoundingBox" id="l"><feOffset in="SourceAlpha" result="shadowOffsetOuter1"/><feGaussianBlur stdDeviation="2" in="shadowOffsetOuter1" result="shadowBlurOuter1"/><feColorMatrix values="0 0 0 0 0.984313725 0 0 0 0 0.690196078 0 0 0 0 0.231372549 0 0 0 1 0" in="shadowBlurOuter1"/></filter></defs><g filter="url(#a)" transform="translate(-175 -44)" fill="none" fill-rule="evenodd"><g transform="translate(182 50)"><use fill="#000" filter="url(#b)" xlink:href="#c"/><use fill="#FBB03B" xlink:href="#c"/><use fill="#000" filter="url(#d)" xlink:href="#e"/><use fill="#FBB03B" xlink:href="#e"/><use fill="#000" filter="url(#f)" xlink:href="#g"/><use fill="#FBB03B" xlink:href="#g"/><use fill="#000" filter="url(#h)" xlink:href="#i"/><use fill="#FBB03B" xlink:href="#i"/><use fill="#000" filter="url(#j)" xlink:href="#k"/><use fill="#FBB03B" xlink:href="#k"/><use fill="#000" filter="url(#l)" xlink:href="#m"/><use fill="#FBB03B" xlink:href="#m"/><circle stroke-opacity=".152" stroke="#FFF" stroke-width="2" cx="17.5" cy="107.395" r="3.5"/><circle stroke-opacity=".152" stroke="#FFF" stroke-width="2" cx="55.5" cy="6.395" r="3.5"/><circle stroke-opacity=".152" stroke="#FFF" stroke-width="2" cx="103.5" cy="24.395" r="3.5"/><circle stroke-opacity=".152" stroke="#FFF" stroke-width="2" cx="4.5" cy="40.395" r="3.5"/><circle stroke-opacity=".152" stroke="#FFF" stroke-width="2" cx="103.5" cy="96.395" r="3.5"/></g><g fill="#FBB03B" fill-rule="nonzero"><path d="M245.774 99.964c.247.163.576.081.905-.082a.771.771 0 0 0 .329-.815l-.823-4.808 3.537-3.34c.247-.245.33-.571.247-.816-.082-.326-.329-.489-.658-.57l-4.853-.733-2.139-4.32c-.246-.57-1.234-.57-1.48 0L238.7 88.8l-4.853.733c-.33.081-.576.244-.658.57-.083.326 0 .652.247.815l3.537 3.341-.823 4.808a.771.771 0 0 0 .33.815c.246.163.575.245.904.082l4.36-2.282 4.03 2.282zm-4.606-3.912l-3.373 1.712.658-3.586c.082-.244-.082-.57-.247-.733l-2.632-2.527 3.62-.489c.246 0 .493-.244.657-.407l1.646-3.26 1.645 3.26c.082.244.329.407.658.407l3.619.49-2.632 2.526c-.165.163-.247.489-.247.733l.658 3.586-3.208-1.712c-.082-.081-.247-.081-.411-.081-.165 0-.247 0-.411.081z"/><path d="M265.17 131.262h-9.966v-7.513c0-.49-.332-.816-.83-.816h-3.82v-4.165c0-.49-.332-.817-.83-.817h-4.651v-9.227c0-.082.166-.245.249-.245 3.986-1.143 7.557-4.328 9.882-8.9 5.315-2.777 8.554-8.167 8.554-14.128v-1.062c0-.49-.332-.816-.83-.816h-4.485c0-1.307-.083-3.021-.166-3.838-.083-.408-.415-.735-.83-.735H226.47c-.416 0-.748.327-.83.735-.084.816-.167 2.531-.167 3.838h-4.567c-.499 0-.83.326-.83.816v1.144c0 6.042 3.238 11.432 8.553 14.127 2.408 4.573 5.896 7.676 9.882 8.9.166 0 .25.164.25.245v9.228h-4.651c-.499 0-.83.327-.83.816v4.165h-3.82c-.499 0-.831.327-.831.817v7.43h-9.8c-.498 0-.83.327-.83.817 0 .49.332.817.83.817h46.34c.498 0 .83-.327.83-.817 0-.49-.415-.816-.83-.816zm-6.56-46.056h3.653v.327c0 4.573-2.16 8.819-5.73 11.432 1.329-3.43 2.076-7.431 2.076-11.759zm-36.873.327v-.327h3.654c0 4.246.747 8.248 2.076 11.677-3.57-2.613-5.73-6.777-5.73-11.35zm8.304 13.147c-1.91-3.756-2.99-8.411-2.99-13.474 0-1.143.084-3.348.167-4.573h29.564c.083 1.307.166 3.511.166 4.573 0 5.063-.996 9.718-2.906 13.474-2.16 4.246-5.398 7.186-9.052 8.247-.914.245-1.495.98-1.495 1.797v9.227h-2.907v-9.227a2.113 2.113 0 0 0-1.495-1.797c-3.654-1.061-6.892-4-9.052-8.247zm4.983 20.986h13.869v3.348h-13.869v-3.348zm18.602 11.596h-23.17v-6.696h23.17v6.696z"/></g></g></svg>