<svg width="116" height="114" viewBox="0 0 116 114" xmlns="http://www.w3.org/2000/svg"><defs><linearGradient x1="50%" y1="0%" x2="50%" y2="100%" id="a"><stop stop-color="#BBC8E7" offset="0%"/><stop stop-color="#8697CB" offset="100%"/></linearGradient></defs><g fill="none" fill-rule="evenodd"><path fill="#A5A5A4" fill-rule="nonzero" d="M16 106h24v8H16zM74 106h24v8H74z"/><rect stroke="#556080" stroke-width="3.9" fill="url(#a)" x="2" y="2" width="112" height="104" rx="3.9"/><rect fill="#556080" x="56" y="82" width="4" height="25" rx="2"/><rect fill="#556080" x="56" y="1" width="4" height="25" rx="2"/><path d="M80 54c0 12.15-9.85 22-22 22s-22-9.85-22-22 9.85-22 22-22 22 9.85 22 22" fill="#556080" fill-rule="nonzero"/><path d="M58 78c-13.234 0-24-10.766-24-24s10.766-24 24-24 24 10.766 24 24-10.766 24-24 24zm0-44c-11.028 0-20 8.972-20 20s8.972 20 20 20 20-8.972 20-20-8.972-20-20-20z" fill="#FFF" fill-rule="nonzero"/><path d="M58 62c-4.412 0-8-3.588-8-8s3.588-8 8-8 8 3.588 8 8-3.588 8-8 8" fill="#556080" fill-rule="nonzero"/><path d="M58 64c-5.514 0-10-4.486-10-10s4.486-10 10-10 10 4.486 10 10-4.486 10-10 10zm0-16c-3.308 0-6 2.692-6 6s2.692 6 6 6 6-2.692 6-6-2.692-6-6-6zM20 94c-3.31 0-6-2.692-6-6s2.69-6 6-6 6 2.692 6 6-2.69 6-6 6M96 94c-3.31 0-6-2.692-6-6s2.69-6 6-6 6 2.692 6 6-2.69 6-6 6" fill="#FFF" fill-rule="nonzero"/><path d="M58 32v8" fill="#556080" fill-rule="nonzero"/><path d="M58 42a2 2 0 0 1-2-2v-8a2 2 0 1 1 4 0v8a2 2 0 0 1-2 2" fill="#FFF" fill-rule="nonzero"/><path d="M58 68v8" fill="#556080" fill-rule="nonzero"/><path d="M58 78a2 2 0 0 1-2-2v-8a2 2 0 1 1 4 0v8a2 2 0 0 1-2 2" fill="#FFF" fill-rule="nonzero"/><path d="M80 54h-8" fill="#556080" fill-rule="nonzero"/><path d="M80 56h-8a2 2 0 1 1 0-4h8a2 2 0 1 1 0 4" fill="#FFF" fill-rule="nonzero"/><path d="M44 54h-8" fill="#556080" fill-rule="nonzero"/><path d="M44 56h-8a2 2 0 1 1 0-4h8a2 2 0 1 1 0 4" fill="#FFF" fill-rule="nonzero"/><path d="M73.556 38.444L67.9 44.1" fill="#556080" fill-rule="nonzero"/><path d="M67.9 46.1a1.998 1.998 0 0 1-1.414-3.414l5.656-5.656a1.998 1.998 0 0 1 2.828 0c.782.78.782 2.046 0 2.828l-5.656 5.656c-.39.392-.902.586-1.414.586" fill="#FFF" fill-rule="nonzero"/><path d="M48.1 63.9l-5.656 5.656" fill="#556080" fill-rule="nonzero"/><path d="M42.444 71.556a1.998 1.998 0 0 1-1.414-3.414l5.656-5.656a1.998 1.998 0 0 1 2.828 0c.78.78.78 2.046 0 2.828l-5.656 5.656a1.993 1.993 0 0 1-1.414.586" fill="#FFF" fill-rule="nonzero"/><path d="M73.556 69.556L67.9 63.9" fill="#556080" fill-rule="nonzero"/><path d="M73.556 71.556c-.51 0-1.022-.194-1.414-.586l-5.656-5.656a1.998 1.998 0 0 1 0-2.828 1.998 1.998 0 0 1 2.828 0l5.656 5.656a1.998 1.998 0 0 1-1.414 3.414" fill="#FFF" fill-rule="nonzero"/><path d="M48.1 44.1l-5.656-5.656" fill="#556080" fill-rule="nonzero"/><path d="M48.1 46.1a1.986 1.986 0 0 1-1.414-.586l-5.656-5.656a1.998 1.998 0 0 1 0-2.828 1.998 1.998 0 0 1 2.828 0l5.656 5.656A2.001 2.001 0 0 1 48.1 46.1" fill="#FFF" fill-rule="nonzero"/></g></svg>