<svg width="116" height="116" viewBox="0 0 116 116" xmlns="http://www.w3.org/2000/svg"><defs><linearGradient x1="100%" y1="100%" x2="0%" y2="0%" id="a"><stop stop-color="#517FA4" offset="0%"/><stop stop-color="#243949" offset="100%"/></linearGradient><linearGradient x1="50%" y1="0%" x2="50%" y2="100%" id="b"><stop stop-color="#D3D9E7" offset="0%"/><stop stop-color="#A8B2CB" offset="100%"/></linearGradient></defs><g fill="none" fill-rule="evenodd"><path d="M4 0h108a4 4 0 0 1 4 4v16H0V4a4 4 0 0 1 4-4z" fill="#2A2D33"/><path d="M0 20h116v92a4 4 0 0 1-4 4H4a4 4 0 0 1-4-4V20z" fill="url(#a)"/><path d="M22 12h-4a2 2 0 1 1 0-4h4a2 2 0 0 1 0 4z" fill="#F0C419" fill-rule="nonzero"/><path d="M34 8a2 2 0 0 0-4 0 2 2 0 0 0 0 4 2 2 0 0 0 4 0 2 2 0 0 0 0-4z" fill="#24AE5F" fill-rule="nonzero"/><path d="M10 12a1.999 1.999 0 0 1-.76-.16 2.07 2.07 0 0 1-.66-.42A2.104 2.104 0 0 1 8 9.999c.003-.262.057-.52.16-.762.1-.242.243-.465.42-.66.194-.176.417-.319.66-.42a1.998 1.998 0 0 1 2.18.42c.18.192.323.416.42.66A1.983 1.983 0 0 1 10 12z" fill="#C03A2B" fill-rule="nonzero"/><path d="M38 66a2 2 0 0 1-2-2v-6a8 8 0 1 0-16 0v6a2 2 0 0 1-4 0v-6c0-6.627 5.373-12 12-12s12 5.373 12 12v6a2 2 0 0 1-2 2z" fill="#C9D0DF" fill-rule="nonzero"/><rect fill="#FFF" fill-rule="nonzero" x="54" y="46" width="48" height="16" rx="2"/><path d="M64 56h-2a2 2 0 0 1 0-4h2a2 2 0 0 1 0 4zM74 56h-2a2 2 0 0 1 0-4h2a2 2 0 0 1 0 4zM84 56h-2a2 2 0 0 1 0-4h2a2 2 0 0 1 0 4zM94 56h-2a2 2 0 0 1 0-4h2a2 2 0 0 1 0 4z" fill="#2C2F38" fill-rule="nonzero"/><rect fill="#FFF" fill-rule="nonzero" x="54" y="70" width="48" height="16" rx="2"/><path d="M64 80h-2a2 2 0 0 1 0-4h2a2 2 0 0 1 0 4zM74 80h-2a2 2 0 0 1 0-4h2a2 2 0 0 1 0 4zM84 80h-2a2 2 0 0 1 0-4h2a2 2 0 0 1 0 4zM94 80h-2a2 2 0 0 1 0-4h2a2 2 0 0 1 0 4z" fill="#2C2F38" fill-rule="nonzero"/><rect fill="url(#b)" fill-rule="nonzero" x="14" y="64" width="28" height="22" rx="2"/><path d="M28 78a2 2 0 0 1-2-2v-2a2 2 0 0 1 4 0v2a2 2 0 0 1-2 2z" fill="#EDF0F7" fill-rule="nonzero"/></g></svg>