<?xml version="1.0" encoding="UTF-8"?>
<svg width="132px" height="94px" viewBox="0 0 132 94" version="1.1" xmlns="http://www.w3.org/2000/svg" xmlns:xlink="http://www.w3.org/1999/xlink">
    <!-- Generator: sketchtool 52.2 (67145) - http://www.bohemiancoding.com/sketch -->
    <title>7B13F512-C424-437C-A06A-0D7B6B8E7D95</title>
    <desc>Created with sketchtool.</desc>
    <defs>
        <filter x="-4.2%" y="-4.4%" width="108.3%" height="108.8%" filterUnits="objectBoundingBox" id="filter-1">
            <feOffset dx="0" dy="2" in="SourceAlpha" result="shadowOffsetOuter1"></feOffset>
            <feGaussianBlur stdDeviation="4" in="shadowOffsetOuter1" result="shadowBlurOuter1"></feGaussianBlur>
            <feColorMatrix values="0 0 0 0 0   0 0 0 0 0   0 0 0 0 0  0 0 0 0.706068841 0" type="matrix" in="shadowBlurOuter1" result="shadowMatrixOuter1"></feColorMatrix>
            <feMerge>
                <feMergeNode in="shadowMatrixOuter1"></feMergeNode>
                <feMergeNode in="SourceGraphic"></feMergeNode>
            </feMerge>
        </filter>
        <circle id="path-2" cx="13" cy="13" r="11.2432432"></circle>
        <filter x="-366.9%" y="-366.9%" width="833.8%" height="833.8%" filterUnits="objectBoundingBox" id="filter-3">
            <feMorphology radius="60" operator="erode" in="SourceAlpha" result="shadowSpreadInner1"></feMorphology>
            <feGaussianBlur stdDeviation="52.5" in="shadowSpreadInner1" result="shadowBlurInner1"></feGaussianBlur>
            <feOffset dx="0" dy="0" in="shadowBlurInner1" result="shadowOffsetInner1"></feOffset>
            <feComposite in="shadowOffsetInner1" in2="SourceAlpha" operator="arithmetic" k2="-1" k3="1" result="shadowInnerInner1"></feComposite>
            <feColorMatrix values="0 0 0 0 0   0 0 0 0 0   0 0 0 0 0  0 0 0 0.08 0" type="matrix" in="shadowInnerInner1"></feColorMatrix>
        </filter>
        <linearGradient x1="1576%" y1="3693.82721%" x2="32486%" y2="25887.0684%" id="linearGradient-4">
            <stop stop-color="#FBB03B" offset="0%"></stop>
            <stop stop-color="#F15A24" offset="100%"></stop>
        </linearGradient>
        <path d="M14.1576142,7.1499461 C13.0132606,11.2109635 12.7234868,11.8007448 12.0820255,11.7134791 C10.6478981,11.5182906 13.9727149,5.14831519 12.2083803,4.93162642 C10.7637234,4.75456556 10.7565633,7.23847653 9.96684555,9.95551765 C9.7284561,10.7716839 9.28031763,12.5987834 8.62874787,12.5098314 C7.65034028,12.3766142 8.33391993,10.729105 8.5205039,9.69793625 C8.75847217,8.36997977 7.66802996,7.64150079 7.04804891,9.44372744 C6.73300419,10.3589635 6.66266667,10.4508665 6.56832173,11.4533682 C6.46092012,12.5916167 6.33203819,13.7332377 6.07848616,14.8571526 C5.53179091,17.2769844 5.70489704,21.1575683 9.97105738,21.7376534 C12.2732424,22.0513041 14.1344491,20.7094357 15.2809086,19.4126757 L15.2872264,19.4156267 C15.8562443,18.6378236 16.4412672,17.7601076 17.1054724,17.3212496 C18.8698071,16.1555989 20.406703,16.4667201 20.685526,15.6349556 C21.2132681,14.0506825 16.6510162,14.9182807 15.735786,15.1497246 C15.081268,15.3154029 13.5081503,15.5046894 13.2533348,16.2036583 C12.9770389,16.9603827 13.8981656,16.7795277 14.1984689,17.1842382 C14.5472082,17.6538711 14.0493702,18.233113 13.5447932,18.6833535 C12.9551374,19.2212813 11.9897864,19.7448756 10.470159,19.5399908 C7.31128814,19.1142016 7.61159146,15.7036721 9.63748062,14.6446795 C13.2373298,12.7657265 16.4185233,14.7901224 17.6222637,12.1068071 C18.7615631,9.57230735 20.383538,6.56606683 19.1612656,6.37340774 C17.8227467,6.16472887 17.5409754,7.93322964 16.7184055,9.80585906 C15.9986041,11.4478878 15.8267615,11.6093504 15.3798866,11.5486439 C14.4355948,11.4209071 17.8008452,4.44892478 16.1936117,4.23054971 C16.1252181,4.22113902 16.0562689,4.21635035 15.9872322,4.21621622 C14.6293389,4.21621622 14.4229593,6.20899408 14.1576142,7.1499461" id="path-5"></path>
        <filter x="-87.4%" y="-45.5%" width="273.6%" height="248.0%" filterUnits="objectBoundingBox" id="filter-6">
            <feOffset dx="0" dy="5" in="SourceAlpha" result="shadowOffsetOuter1"></feOffset>
            <feGaussianBlur stdDeviation="3.5" in="shadowOffsetOuter1" result="shadowBlurOuter1"></feGaussianBlur>
            <feColorMatrix values="0 0 0 0 0   0 0 0 0 0   0 0 0 0 0  0 0 0 0.1 0" type="matrix" in="shadowBlurOuter1"></feColorMatrix>
        </filter>
    </defs>
    <g id="Onboarding" stroke="none" stroke-width="1" fill="none" fill-rule="evenodd">
        <g id="Onboarding---eSports" transform="translate(-655.000000, -359.000000)">
            <g id="Modal" filter="url(#filter-1)" transform="translate(480.000000, 286.000000)">
                <g id="trofej" transform="translate(161.000000, 40.000000)">
                    <g id="trophy-(3)">
                        <g id="eSports" transform="translate(20.000000, 34.000000)">
                            <g id="Group">
                                <g id="Sword" transform="translate(69.000000, 51.000000) rotate(-104.000000) translate(-69.000000, -51.000000) translate(27.000000, 9.000000)">
                                    <path d="M69.5921089,14.3425358 C69.3550038,14.105584 69.0280256,13.9822771 68.6932258,14.0020614 L56.9709372,14.720125 C56.672792,14.7383757 56.3928975,14.8698111 56.1887663,15.0877454 L31.2315318,41.7198992 C30.7895286,42.1913489 30.8137605,42.931804 31.2852102,43.3736539 C31.7566599,43.8155038 32.4969617,43.7914252 32.938965,43.3199755 L57.5782699,17.0273759 L67.5161352,16.4186629 L66.9074222,26.3565282 L31.1913497,59.8265431 C30.4512013,58.769232 29.6415777,57.7651392 28.7696871,56.8194792 L60.27814,25.3110263 C60.7350198,24.8541465 60.7350198,24.1132312 60.27814,23.6565047 C59.8212601,23.1996249 59.0803449,23.1996249 58.6236184,23.6565047 L27.1151655,55.1649576 C26.1695055,54.2932204 25.1655661,53.4835968 24.108255,52.7434484 L32.938965,43.3199755 C33.3808149,42.8485258 31.6331996,41.2482961 31.1913497,41.7198992 L22.1031368,51.4609948 C20.2104365,50.3566001 18.1795526,49.4571035 16.036711,48.7980861 C15.7400995,48.7069862 15.4194094,48.7370461 15.1451895,48.8822845 C14.8709696,49.0275229 14.6656113,49.2756705 14.5743581,49.572282 L13.199731,54.0407786 C13.0097094,54.6583869 13.3563185,55.31311 13.9739268,55.5031315 C15.9210724,56.1021824 17.7481317,56.96027 19.4159962,58.0382856 L0.342659889,77.1116219 C-0.114219963,77.5685017 -0.114219963,78.309417 0.342659889,78.7661435 L5.16788778,83.5913714 C5.38720238,83.8108394 5.68488744,83.9341463 5.99514858,83.9341463 C6.30540972,83.9341463 6.60309478,83.8108394 6.82240938,83.5913714 L25.8960524,64.5177283 C26.9743748,66.1858996 27.8326157,68.0131123 28.43182,69.9605645 C28.5230732,70.257176 28.7284314,70.505477 29.0026514,70.650562 C29.1728886,70.7407417 29.3609163,70.7865984 29.5500177,70.7865984 C29.6656563,70.7865984 29.7814483,70.7694213 29.8941729,70.7347604 L34.3625161,69.3601333 C34.6591276,69.26888 34.9072752,69.0635218 35.0525136,68.7893019 C35.197752,68.515082 35.2279653,68.1942385 35.136712,67.8977804 C34.4773879,65.7552455 33.5780447,63.7243616 32.4738033,61.8316613 L68.8468994,27.7458785 C69.0648337,27.5417472 69.1964224,27.2618527 69.2145197,26.9637075 L69.9325833,15.241419 C69.9531345,14.9067725 69.8292141,14.5794876 69.5921089,14.3425358 Z" id="Shape" fill="#111020" fill-rule="nonzero"></path>
                                    <polygon id="Path-2" stroke="#7F8FA4" stroke-width="3" fill="#7F8FA4" stroke-linejoin="round" points="82.5486794 15.4964196 32.4292849 62.8406445 21 52.1096672 67.8078358 1.50976669 83.8413165 -7.17766503e-13"></polygon>
                                    <path d="M75.5,8.5 L26.5,57.5" id="Line" stroke="#657387" stroke-width="3" stroke-linecap="round"></path>
                                    <path d="M38,71.8926042 L28,71 C24,61 23,59.9463021 13,56 L12.1073958,46 C25.0536979,50 34,58.9463021 38,71.8926042 Z" id="Path" fill="#474A6D" fill-rule="nonzero"></path>
                                </g>
                                <g id="Sword" transform="translate(51.000000, 51.000000) scale(-1, 1) rotate(-104.000000) translate(-51.000000, -51.000000) translate(9.000000, 9.000000)">
                                    <path d="M69.5921089,14.3425358 C69.3550038,14.105584 69.0280256,13.9822771 68.6932258,14.0020614 L56.9709372,14.720125 C56.672792,14.7383757 56.3928975,14.8698111 56.1887663,15.0877454 L31.2315318,41.7198992 C30.7895286,42.1913489 30.8137605,42.931804 31.2852102,43.3736539 C31.7566599,43.8155038 32.4969617,43.7914252 32.938965,43.3199755 L57.5782699,17.0273759 L67.5161352,16.4186629 L66.9074222,26.3565282 L31.1913497,59.8265431 C30.4512013,58.769232 29.6415777,57.7651392 28.7696871,56.8194792 L60.27814,25.3110263 C60.7350198,24.8541465 60.7350198,24.1132312 60.27814,23.6565047 C59.8212601,23.1996249 59.0803449,23.1996249 58.6236184,23.6565047 L27.1151655,55.1649576 C26.1695055,54.2932204 25.1655661,53.4835968 24.108255,52.7434484 L32.938965,43.3199755 C33.3808149,42.8485258 31.6331996,41.2482961 31.1913497,41.7198992 L22.1031368,51.4609948 C20.2104365,50.3566001 18.1795526,49.4571035 16.036711,48.7980861 C15.7400995,48.7069862 15.4194094,48.7370461 15.1451895,48.8822845 C14.8709696,49.0275229 14.6656113,49.2756705 14.5743581,49.572282 L13.199731,54.0407786 C13.0097094,54.6583869 13.3563185,55.31311 13.9739268,55.5031315 C15.9210724,56.1021824 17.7481317,56.96027 19.4159962,58.0382856 L0.342659889,77.1116219 C-0.114219963,77.5685017 -0.114219963,78.309417 0.342659889,78.7661435 L5.16788778,83.5913714 C5.38720238,83.8108394 5.68488744,83.9341463 5.99514858,83.9341463 C6.30540972,83.9341463 6.60309478,83.8108394 6.82240938,83.5913714 L25.8960524,64.5177283 C26.9743748,66.1858996 27.8326157,68.0131123 28.43182,69.9605645 C28.5230732,70.257176 28.7284314,70.505477 29.0026514,70.650562 C29.1728886,70.7407417 29.3609163,70.7865984 29.5500177,70.7865984 C29.6656563,70.7865984 29.7814483,70.7694213 29.8941729,70.7347604 L34.3625161,69.3601333 C34.6591276,69.26888 34.9072752,69.0635218 35.0525136,68.7893019 C35.197752,68.515082 35.2279653,68.1942385 35.136712,67.8977804 C34.4773879,65.7552455 33.5780447,63.7243616 32.4738033,61.8316613 L68.8468994,27.7458785 C69.0648337,27.5417472 69.1964224,27.2618527 69.2145197,26.9637075 L69.9325833,15.241419 C69.9531345,14.9067725 69.8292141,14.5794876 69.5921089,14.3425358 Z" id="Shape" fill="#111020" fill-rule="nonzero"></path>
                                    <polygon id="Path-2" stroke="#7F8FA4" stroke-width="3" fill="#7F8FA4" stroke-linejoin="round" points="82.5486794 15.4964196 32.4292849 62.8406445 21 52.1096672 67.8078358 1.50976669 83.8413165 -7.17766503e-13"></polygon>
                                    <path d="M75.5,8.5 L26.5,57.5" id="Line" stroke="#657387" stroke-width="3" stroke-linecap="round"></path>
                                    <path d="M38,71.8926042 L28,71 C24,61 23,59.9463021 13,56 L12.1073958,46 C25.0536979,50 34,58.9463021 38,71.8926042 Z" id="Path" fill="#474A6D" fill-rule="nonzero"></path>
                                </g>
                            </g>
                            <g id="Shield" transform="translate(30.000000, 6.000000)">
                                <path d="M0,4 C4.28571429,44.4935591 14.2857143,67.2560619 30,72.2875085 C45.7142857,67.2560619 55.7142857,44.4935591 60,4 C48.0952381,5.0230608 38.0952381,3.68972746 30,0 C21.9047619,3.68972746 11.9047619,5.0230608 0,4 Z" id="Path-3" stroke="#FBB03B" stroke-width="2" fill="#E09F36" stroke-linecap="round" stroke-linejoin="round"></path>
                                <path d="M30,72.2875085 C45.7142857,67.2560619 55.7142857,44.4935591 60,4 C48.0952381,5.0230608 38.0952381,3.68972746 30,0 C43,34 6.42857143,64.7403387 30,72.2875085 Z" id="Path-3" fill-opacity="0.5" fill="#FBB03B"></path>
                                <g id="Coin" transform="translate(17.000000, 19.000000)">
                                    <g id="GNation-coin">
                                        <circle id="coin" fill="#FBB03B" cx="13" cy="13" r="13"></circle>
                                        <g id="coin">
                                            <use fill="#E09F36" fill-rule="evenodd" xlink:href="#path-2"></use>
                                            <use fill="black" fill-opacity="1" filter="url(#filter-3)" xlink:href="#path-2"></use>
                                        </g>
                                        <g id="hand" fill-rule="nonzero">
                                            <use fill="black" fill-opacity="1" filter="url(#filter-6)" xlink:href="#path-5"></use>
                                            <use fill="url(#linearGradient-4)" xlink:href="#path-5"></use>
                                        </g>
                                    </g>
                                </g>
                            </g>
                        </g>
                    </g>
                </g>
            </g>
        </g>
    </g>
</svg>