<svg width="100" height="83" xmlns="http://www.w3.org/2000/svg"><g fill="#8492B4" fill-rule="nonzero" opacity=".3"><path d="M50 62.5a1.954 1.954 0 1 0 .001 3.908A1.954 1.954 0 0 0 50 62.5z"/><path d="M87.695 23.957v-8.332h1.953a9.701 9.701 0 0 0 6.905-2.86 9.702 9.702 0 0 0 2.861-6.906 1.953 1.953 0 0 0-1.953-1.953H85.742A1.953 1.953 0 0 0 83.79 5.86v17.065c-5.776-1.367-12.745-2.369-20.385-2.919-3.74-.269-7.588-.422-11.45-.46v-7.826h1.952a9.701 9.701 0 0 0 6.905-2.861 9.702 9.702 0 0 0 2.86-6.905A1.953 1.953 0 0 0 61.72 0H50a1.953 1.953 0 0 0-1.953 1.953v17.591c-3.863.039-7.71.192-11.45.461-7.64.55-14.61 1.552-20.386 2.919v-7.299h1.953a9.701 9.701 0 0 0 6.905-2.86 9.702 9.702 0 0 0 2.86-6.906 1.953 1.953 0 0 0-1.952-1.953h-11.72a1.953 1.953 0 0 0-1.952 1.953v18.098C4.14 26.383 0 29.492 0 33.203V68.36c0 2.97 2.657 5.566 7.898 7.715 8.422 3.453 21.103 5.012 30.26 5.588 3.878.245 7.862.37 11.842.37 3.98 0 7.964-.125 11.841-.37 9.055-.57 21.81-2.123 30.261-5.588 5.24-2.149 7.898-4.744 7.898-7.715V33.203c0-3.711-4.14-6.82-12.305-9.246zm0-16.145h7.48a5.844 5.844 0 0 1-1.384 2.19 5.82 5.82 0 0 1-4.143 1.717h-1.953V7.813zM51.953 3.906h7.48a5.844 5.844 0 0 1-1.384 2.19 5.82 5.82 0 0 1-4.143 1.716h-1.953V3.906zM16.211 7.812h7.48a5.844 5.844 0 0 1-1.385 2.19 5.82 5.82 0 0 1-4.142 1.717h-1.953V7.813zm48.135 16.183c6.432.51 12.325 1.345 17.335 2.453l-8.667 6.191c-4.028-.556-8.677-.958-13.643-1.181l4.975-7.463zM50 23.437c3.309 0 6.61.088 9.85.26l-5.072 7.608a214.73 214.73 0 0 0-9.557 0l-5.071-7.608c3.24-.172 6.541-.26 9.85-.26zm-14.346.558l4.975 7.463c-4.966.223-9.616.624-13.645 1.18l-8.665-6.19c5.01-1.108 10.903-1.944 17.335-2.453zm-22.282 3.72l8.184 5.846c-1.814.381-3.36.798-4.62 1.248-1.73.619-4.021 1.654-4.484 3.604-6.617-2.1-8.546-4.222-8.546-5.21 0-1.014 2.025-3.271 9.466-5.488zm10.651 48.481C9.416 73.838 3.906 70.192 3.906 68.36v-6.076c1.113.723 2.461 1.408 4.045 2.053 4.024 1.639 9.556 3.036 16.072 4.067v7.793zm0-11.75c-5.953-.972-10.97-2.25-14.599-3.728-4.073-1.659-5.518-3.233-5.518-4.077v-6.042c1.1.717 2.43 1.397 3.992 2.037 4.022 1.649 9.573 3.05 16.125 4.076v7.735zm0-11.687C9.416 50.4 3.906 46.754 3.906 44.922v-6.028c2.89 1.882 7.375 3.503 13.435 4.85 2.085.463 4.328.881 6.682 1.25v7.765zm12.305 24.86c-2.898-.218-5.71-.503-8.398-.855v-7.802c2.693.347 5.502.632 8.398.85v7.807zm.22-11.709c-2.98-.225-5.866-.522-8.618-.887v-7.759c4.045.513 8.338.884 12.746 1.101-.067.063-.135.123-.201.187a13.594 13.594 0 0 0-3.928 7.358zM27.93 53.326v-7.78c6.277.796 13.151 1.247 20.117 1.318v7.812c-6.989-.073-13.872-.534-20.117-1.35zm31.836 24.542c-2.576.136-5.19.217-7.813.244v-5.846a1.953 1.953 0 0 0-3.906 0v5.846a185.138 185.138 0 0 1-7.813-.244V68.36A9.719 9.719 0 0 1 50 58.593a9.708 9.708 0 0 1 6.905 2.86 9.731 9.731 0 0 1 2.86 6.906v9.51zm12.304-1.104c-2.688.352-5.5.637-8.398.855V69.81c2.896-.217 5.706-.502 8.398-.85v7.803zm0-11.74c-2.752.364-5.639.662-8.619.886a13.623 13.623 0 0 0-3.783-7.22c-.112-.111-.228-.218-.343-.325 4.409-.217 8.7-.588 12.745-1.101v7.76zm0-11.698c-6.244.816-13.128 1.277-20.117 1.35v-7.812c6.97-.071 13.844-.523 20.117-1.32v7.782zM50 42.97c-8.278 0-16.484-.55-23.733-1.588a110.75 110.75 0 0 1-7.437-1.311 1.955 1.955 0 0 0-.359-.177c-.812-.303-1.347-.564-1.696-.764 5.183-2.823 21.503-3.73 27.473-3.893 3.772-.106 7.73-.106 11.505 0 6.492.177 12.557.657 17.54 1.388 6.28.92 8.893 1.945 9.922 2.507-.44.254-1.182.604-2.406 1.015-2.217.466-4.593.88-7.069 1.233-7.245 1.04-15.455 1.59-23.74 1.59zm46.094 25.39c0 1.833-5.51 5.48-20.117 7.837v-7.793c6.516-1.031 12.049-2.428 16.072-4.067 1.584-.645 2.932-1.33 4.045-2.053v6.076zm0-11.718c0 .844-1.445 2.418-5.518 4.077-3.63 1.478-8.645 2.756-14.6 3.729v-7.735c6.554-1.027 12.105-2.427 16.126-4.076 1.561-.64 2.891-1.32 3.992-2.037v6.042zm0-11.72c0 1.833-5.51 5.48-20.117 7.837v-7.764c5.992-.937 15.061-2.804 20.117-6.095v6.023zm-8.558-6.502c-.466-1.977-2.817-3.024-4.6-3.65-1.238-.434-2.74-.838-4.494-1.206l8.187-5.848c7.44 2.217 9.465 4.474 9.465 5.488 0 1.006-1.947 3.125-8.558 5.216z"/></g></svg>