<svg width="50" height="50" viewBox="0 0 50 50" xmlns="http://www.w3.org/2000/svg"><path d="M18.917.75C5.544 4.105-2.6 17.7.755 31.07 4.11 44.44 17.71 52.6 31.083 49.246c13.373-3.354 21.517-16.97 18.162-30.34a1.254 1.254 0 0 0-2.422.626C49.85 31.59 42.54 43.78 30.478 46.806 18.415 49.832 6.223 42.524 3.196 30.465.17 18.405 7.46 6.216 19.522 3.19A22.49 22.49 0 0 1 38.25 6.822a1.253 1.253 0 1 0 1.484-2.011A25.019 25.019 0 0 0 24.365.008c-1.82.046-3.65.29-5.448.742zM47.23 6.742c-6.756 7.067-14.618 16.58-21.673 23.996l-9.726-8.57a1.25 1.25 0 1 0-1.64 1.874l10.623 9.37a1.25 1.25 0 0 0 1.719-.077c6.969-7.29 15.575-17.638 22.494-24.875a1.25 1.25 0 0 0-1.074-2.108 1.25 1.25 0 0 0-.723.39z" fill="#43BF58"/></svg>