<svg width="300" height="348" xmlns="http://www.w3.org/2000/svg"><defs><linearGradient x1="0%" y1="0%" y2="100%" id="a"><stop stop-color="#474A6D" offset="0%"/><stop stop-color="#22243B" offset="100%"/></linearGradient><linearGradient x1="0%" y1="0%" y2="100%" id="b"><stop stop-color="#FFF" stop-opacity="0" offset="0%"/><stop stop-color="#FFF" stop-opacity=".4" offset="100%"/></linearGradient><linearGradient x1="0%" y1="0%" y2="100%" id="c"><stop stop-color="#FFF" stop-opacity=".2" offset="0%"/><stop stop-color="#FFF" stop-opacity=".4" offset="100%"/></linearGradient><linearGradient x1="0%" y1="0%" y2="100%" id="d"><stop stop-color="#EBDC7D" stop-opacity=".197" offset="0%"/><stop stop-color="#D3B747" stop-opacity=".4" offset="100%"/></linearGradient></defs><g fill="none" fill-rule="evenodd"><rect fill="url(#a)" width="300" height="348" rx="4"/><path d="M0 3.991C0 1.787 1.8 0 4 0h292a4 4 0 0 1 4 3.991V189H0V3.991z" fill-opacity=".4" fill="url(#b)"/><path fill-opacity=".1" fill="#FFF" d="M0 268h300v1H0z"/><rect fill="url(#c)" opacity=".4" x="29" y="210" width="52" height="12" rx="6"/><rect fill="url(#c)" x="29" y="228" width="210" height="16" rx="8"/><rect fill="url(#c)" opacity=".2" x="30" y="291" width="50" height="8" rx="4"/><rect fill="url(#c)" opacity=".2" x="150" y="291" width="50" height="8" rx="4"/><rect fill="url(#d)" x="30" y="307" width="70" height="14" rx="7"/><rect fill="url(#c)" x="150" y="307" width="100" height="14" rx="7"/></g></svg>