<?xml version="1.0" encoding="UTF-8"?>
<svg width="98px" height="30px" viewBox="0 0 98 30" version="1.1" xmlns="http://www.w3.org/2000/svg" xmlns:xlink="http://www.w3.org/1999/xlink">    <defs>
        <path d="M43.161448,14.3640978 L43.161448,19.2453141 C42.0409166,19.9359042 40.770981,20.2968945 39.4711645,20.2811992 C36.6175444,20.2811992 34.3615411,18.1309528 34.3615411,15.0076022 C34.3615411,11.8842515 36.6474253,9.71830986 39.5906879,9.71830986 C40.7261597,9.71830986 41.8466911,10.0165192 42.8476992,10.5972427 L41.9064528,12.5120607 C41.234134,12.1510704 40.5020534,11.9470324 39.740092,11.9470324 C37.7978376,11.9470324 36.7669486,13.218346 36.7669486,15.0076022 C36.7669486,16.9538106 38.0219438,18.1780385 39.6056283,18.1780385 C40.3227684,18.1780385 40.6813384,18.0995624 41.0399085,17.8955244 L41.0399085,16.3887823 L39.0827136,16.3887823 L39.0827136,14.3640978 L43.161448,14.3640978 Z" id="path-1"></path><path d="M14.0218015,5.00270445 C12.1008433,11.9474526 11.609078,12.9573153 10.5179737,12.8019518 C8.08988255,12.4601521 13.7144482,1.58470762 10.733121,1.21183524 C8.2896622,0.916644604 8.27429454,5.15806794 6.93730763,9.80343636 C6.53774833,11.2017078 5.78473271,14.324514 4.67826079,14.1691505 C3.01855291,13.9361053 4.18649549,11.124026 4.4938488,9.36841858 C4.89340811,7.1001116 3.04928824,5.85720366 2.00428698,8.9334008 C1.48178635,10.4870357 1.35884503,10.6423992 1.18980071,12.3513976 C1.02075638,14.3089776 0.7902414,16.2510213 0.37531443,18.1775286 C-0.546745505,22.3101975 -0.254759859,28.9442186 6.9526753,29.9230086 C10.8406947,30.4512445 13.9910661,28.1674011 15.927392,25.9457032 L15.9427597,25.9457032 C16.9109226,24.6095772 17.8944532,23.1180876 19.0162928,22.3723429 C21.9976199,20.3836902 24.5947554,20.9119261 25.071153,19.4981183 C25.9624776,16.7947935 18.2479095,18.2707467 16.6957753,18.6746918 C15.5893034,18.9543461 12.9306972,19.2806094 12.5004026,20.4769083 C12.0393726,21.7664253 13.5915068,21.4556983 14.0986398,22.154834 C14.6826111,22.9627242 13.8527571,23.9415142 12.9921679,24.7183316 C11.9932696,25.6349762 10.3642971,26.5360845 7.7978969,26.1787484 C2.44994928,25.44854 2.95708225,19.6224091 6.38407167,17.8201926 C12.4696672,14.6041683 17.8483502,18.0687741 19.876882,13.4855511 C21.7978402,9.15090969 24.5486524,4.02391445 22.4740175,3.69765112 C20.2149707,3.34031508 19.7385731,6.35436683 18.3401155,9.55485477 C17.1260699,12.366934 16.8340843,12.6310519 16.0810686,12.5378338 C14.4828314,12.3203249 20.1688677,0.419481429 17.4641586,0.0466090477 C17.3565849,0.0155363492 17.2490112,0 17.1260699,0 C14.8209201,0 14.4828314,3.40246048 14.0218015,5.00270445" id="path-2"></path>
    </defs>
    <g id="Tech-Demo" stroke="none" stroke-width="1" fill="none" fill-rule="evenodd">
        <g id="GStore-Order-Details" transform="translate(-20.000000, -20.000000)">
            <g id="Header">
                <g id="logo/GNation_logo" transform="translate(20.000000, 20.000000)">
                    <g id="GStore_logo">
                        <g id="GNation_logo" fill-rule="nonzero">
                            <g id="Shape">
                                <use fill="#F26122" xlink:href="#path-1"></use>
                                <use fill="#43A91F" xlink:href="#path-1"></use>
                            </g>
                            <g id="Shape">
                                <use fill="#F26122" xlink:href="#path-2"></use>
                                <use fill="#43A91F" xlink:href="#path-2"></use>
                            </g>
                        </g>
                        <text id="store" font-family="Roboto-Black, Roboto" font-size="14" font-weight="700" line-spacing="16" letter-spacing="2" fill="#FFFFFF">
                            <tspan x="46" y="20">STOR</tspan>
                            <tspan x="90.1962891" y="20">E</tspan>
                        </text>
                    </g>
                </g>
            </g>
        </g>
    </g>
</svg>